<svg width="190" height="190" viewBox="0 0 190 190" fill="none" xmlns="http://www.w3.org/2000/svg">
<path d="M94.7617 2.74414C145.582 2.74414 186.779 43.9416 186.779 94.7617C186.779 145.582 145.582 186.78 94.7617 186.78C43.9416 186.78 2.74414 145.582 2.74414 94.7617C2.74433 43.9416 43.9417 2.74416 94.7617 2.74414Z" fill="url(#paint0_linear_99_3627)" stroke="url(#paint1_linear_99_3627)" stroke-width="5.48761"/>
<path d="M85.7402 61.7614H99.7499V112.287C99.7499 117.826 98.4409 122.697 95.8227 126.901C93.2297 131.105 89.5793 134.391 84.8717 136.757C80.164 139.098 74.6633 140.269 68.3696 140.269C62.0508 140.269 56.5375 139.098 51.8298 136.757C47.1221 134.391 43.4718 131.105 40.8788 126.901C38.2858 122.697 36.9893 117.826 36.9893 112.287V61.7614H50.999V111.117C50.999 114.339 51.7039 117.209 53.1137 119.726C54.5487 122.244 56.5627 124.22 59.1557 125.655C61.7487 127.065 64.82 127.77 68.3696 127.77C71.9193 127.77 74.9906 127.065 77.5836 125.655C80.2018 124.22 82.2157 122.244 83.6255 119.726C85.0353 117.209 85.7402 114.339 85.7402 111.117V61.7614Z" fill="white"/>
<path d="M113.048 61.7696L124.809 83.2805L136.759 61.7696H151.289L133.724 90.9061L151.593 120.042H137.139L124.809 99.0627L112.593 120.042H98.0244L115.779 90.9061L98.4796 61.7696H113.048Z" fill="white"/>
<path d="M152.749 49.4453C152.749 53.868 149.164 57.4534 144.741 57.4534C140.319 57.4534 136.733 53.868 136.733 49.4453C136.733 45.0226 140.319 41.4373 144.741 41.4373C149.164 41.4373 152.749 45.0226 152.749 49.4453Z" fill="#00FFEA"/>
<defs>
<linearGradient id="paint0_linear_99_3627" x1="94.7618" y1="0" x2="94.7618" y2="189.524" gradientUnits="userSpaceOnUse">
<stop stop-color="#00D0FF"/>
<stop offset="1" stop-color="#303DC8"/>
</linearGradient>
<linearGradient id="paint1_linear_99_3627" x1="94.7618" y1="0" x2="94.7618" y2="189.524" gradientUnits="userSpaceOnUse">
<stop stop-color="#00FFEA"/>
<stop offset="1" stop-color="#000D99"/>
</linearGradient>
</defs>
</svg>
